<svg xmlns="http://www.w3.org/2000/svg" width="412.199" height="140.01"><g fill="#FFF"><path d="M99.154 56.447c5.533-3.783 13.867-9.272 17.457-12.295 0 0-72.221-44.121-103.895-44.152 0 0-2.604 6.402-4.877 14.185 23.724 9.19 91.304 42.26 91.315 42.262M64.291 79.258c6.836-4.441 14.773-9.439 23.471-15.313-25.873-10.918-75.35-37.801-82.174-41.528-1.16 5.01-2.355 10.487-3.359 16.834 9.056 11.638 61.866 39.888 62.062 40.007M31.237 100.575c5.367-3.332 11.713-7.496 20.337-13.059C11.961 67.514 1.055 48.475 1.006 48.387.441 54.659 0 59.657 0 66.694c9.516 18.599 31.094 33.781 31.237 33.881M23.078 105.844l-12.506 8.037C4.491 103.852 1.271 89.061.465 78.942c0 0 10.49 19.879 22.613 26.902M90.004 101.311a6.989 6.989 0 01-.646 2.455 6.534 6.534 0 01-1.432 1.971 6.416 6.416 0 01-2.09 1.309c-.801.314-1.68.473-2.632.473-.917 0-1.821-.18-2.712-.539a6.963 6.963 0 01-2.336-1.539 6.61 6.61 0 01-1.213-1.727 8.514 8.514 0 01-.676-1.957c-.143-.674-.238-1.367-.283-2.078a33.051 33.051 0 010-4.168c.045-.703.141-1.395.283-2.08a8.244 8.244 0 01.676-1.955 6.737 6.737 0 011.213-1.715 6.928 6.928 0 012.336-1.537 7.162 7.162 0 012.712-.539c.952 0 1.831.156 2.632.471.8.314 1.498.752 2.09 1.309a6.576 6.576 0 011.432 1.971 7 7 0 01.646 2.455h-1.457a5.361 5.361 0 00-.514-1.943 5.221 5.221 0 00-1.117-1.537 4.795 4.795 0 00-1.635-.998 5.914 5.914 0 00-2.077-.352c-.864 0-1.62.145-2.267.432a5.81 5.81 0 00-1.756 1.215c-.43.451-.768.955-1.011 1.51-.243.561-.423 1.139-.54 1.742s-.188 1.215-.215 1.834a41.446 41.446 0 00-.041 1.795c0 .576.014 1.174.041 1.795s.104 1.238.229 1.85c.127.611.312 1.197.553 1.754.244.557.58 1.061 1.012 1.51 1.063 1.1 2.393 1.646 3.995 1.646.756 0 1.448-.115 2.077-.35a4.765 4.765 0 001.635-.998 5.23 5.23 0 001.117-1.539 5.356 5.356 0 00.514-1.943h1.457zM104.389 100.422c0 1.15-.145 2.176-.432 3.074a5.923 5.923 0 01-3.172 3.562c-.655.307-1.408.459-2.252.459-.846 0-1.598-.152-2.254-.459a5.923 5.923 0 01-3.172-3.562c-.287-.898-.431-1.924-.431-3.074 0-1.152.144-2.178.431-3.078a5.923 5.923 0 013.172-3.562c.656-.305 1.408-.459 2.254-.459.844 0 1.597.154 2.252.459a5.922 5.922 0 011.688 1.16 5.923 5.923 0 011.484 2.402c.287.901.432 1.926.432 3.078m-1.375 0c0-.883-.1-1.711-.299-2.484-.197-.773-.602-1.475-1.213-2.105a4.21 4.21 0 00-1.27-.863c-.486-.215-1.053-.324-1.699-.324-.648 0-1.215.109-1.701.324a4.187 4.187 0 00-1.268.863c-.613.631-1.018 1.332-1.215 2.105s-.297 1.602-.297 2.484c0 .881.1 1.709.297 2.48.197.773.602 1.477 1.215 2.105.358.361.781.648 1.268.863s1.053.324 1.701.324c.646 0 1.213-.109 1.699-.324s.908-.502 1.27-.863c.611-.629 1.016-1.332 1.213-2.105a9.903 9.903 0 00.299-2.48M115.533 94.969c-.217-.055-.436-.09-.661-.107s-.446-.029-.661-.029c-.846 0-1.543.174-2.092.514a3.86 3.86 0 00-1.309 1.352 5.977 5.977 0 00-.688 1.889c-.135.701-.2 1.402-.2 2.104v6.477h-1.352V93.674h1.188l.164 2.725c.303-.934.856-1.645 1.657-2.131a4.983 4.983 0 012.632-.729c.215 0 .436.004.661.014.226.008.444.031.661.066v1.35zM130.484 100.395a9.903 9.903 0 01-.512 3.184c-.344 1.008-.875 1.854-1.594 2.535a5.098 5.098 0 01-1.578 1.027c-.604.25-1.299.377-2.092.377a5.26 5.26 0 01-2.699-.729c-.395-.232-.75-.512-1.065-.836s-.563-.674-.741-1.053v7.664h-1.351v-18.89h1.188l.162 2.373c.178-.412.432-.789.754-1.133.324-.34.686-.629 1.08-.861a5.199 5.199 0 011.281-.541 5.171 5.171 0 011.363-.189c.775 0 1.453.113 2.037.338a5.08 5.08 0 011.553.932c.756.666 1.313 1.506 1.674 2.523a9.769 9.769 0 01.54 3.279m-1.377.027c0-.973-.139-1.881-.418-2.727s-.732-1.549-1.363-2.105a3.687 3.687 0 00-1.16-.703c-.432-.16-.936-.242-1.512-.242-.593 0-1.113.1-1.564.297s-.846.459-1.188.783c-.611.594-1.053 1.291-1.322 2.092s-.404 1.67-.404 2.605c0 1.008.125 1.9.377 2.684s.693 1.463 1.322 2.037c.342.324.742.58 1.201.77s1.002.283 1.633.283c.629 0 1.178-.109 1.646-.324a4.225 4.225 0 001.24-.863 5.293 5.293 0 001.146-2.078 8.616 8.616 0 00.366-2.509M145.166 100.422c0 1.15-.145 2.176-.432 3.074a5.923 5.923 0 01-3.172 3.562c-.656.307-1.408.459-2.252.459-.848 0-1.598-.152-2.254-.459a5.913 5.913 0 01-3.172-3.562c-.287-.898-.432-1.924-.432-3.074 0-1.152.145-2.178.432-3.078a5.913 5.913 0 013.172-3.562c.656-.305 1.406-.459 2.254-.459.844 0 1.596.154 2.252.459a5.922 5.922 0 011.688 1.16 5.923 5.923 0 011.484 2.402c.287.901.432 1.926.432 3.078m-1.375 0c0-.883-.1-1.711-.299-2.484-.198-.773-.602-1.475-1.215-2.105a4.175 4.175 0 00-1.268-.863c-.486-.215-1.053-.324-1.699-.324-.648 0-1.215.109-1.701.324a4.2 4.2 0 00-1.268.863c-.613.631-1.018 1.332-1.215 2.105s-.297 1.602-.297 2.484c0 .881.1 1.709.297 2.48.197.773.602 1.477 1.215 2.105.358.361.782.648 1.268.863.486.215 1.053.324 1.701.324.646 0 1.213-.109 1.699-.324s.908-.502 1.268-.863c.613-.629 1.017-1.332 1.215-2.105a9.903 9.903 0 00.299-2.48M156.311 94.969a3.865 3.865 0 00-.66-.107 8.385 8.385 0 00-.662-.029c-.846 0-1.542.174-2.092.514a3.849 3.849 0 00-1.308 1.352 6.002 6.002 0 00-.689 1.889 11.264 11.264 0 00-.201 2.104v6.477h-1.35V93.674h1.188l.162 2.725c.305-.934.859-1.645 1.66-2.131a4.977 4.977 0 012.631-.729c.215 0 .436.004.662.014.225.008.443.031.66.066v1.35zM170.535 107.168a8.71 8.71 0 01-.324.066c-.053.01-.162.014-.324.014-.828 0-1.391-.26-1.688-.783-.297-.521-.443-1.141-.443-1.861a3.81 3.81 0 01-.771 1.268 4.56 4.56 0 01-1.145.904c-.434.242-.9.428-1.406.555a6.372 6.372 0 01-1.537.188 5.776 5.776 0 01-1.822-.283 4.39 4.39 0 01-1.484-.824 3.682 3.682 0 01-.986-1.309c-.232-.512-.35-1.092-.35-1.738 0-1.205.418-2.156 1.254-2.848.838-.693 1.932-1.084 3.281-1.176l4.967-.35v-1.322c0-1.115-.338-1.906-1.014-2.375-.674-.467-1.523-.701-2.551-.701-1.08 0-1.98.242-2.699.727-.721.486-1.115 1.234-1.188 2.24h-1.35c.055-.682.221-1.285.5-1.807a4.134 4.134 0 011.105-1.322c.459-.359 1-.635 1.621-.824a6.886 6.886 0 012.01-.283c.467 0 .932.041 1.391.123.459.08.895.219 1.309.416.414.199.783.455 1.107.77.322.316.574.707.756 1.174.16.414.26.838.295 1.27.037.432.055.873.055 1.322v6.154c0 .467.059.826.176 1.078s.41.379.879.379c.16 0 .287-.01.377-.027v1.185zm-2.779-6.937l-4.834.297c-1.008.072-1.809.355-2.402.852-.592.494-.889 1.156-.889 1.984 0 .971.318 1.699.957 2.186s1.443.729 2.416.729c.846 0 1.568-.158 2.174-.473a4.275 4.275 0 001.471-1.229c.379-.502.656-1.074.836-1.713s.271-1.283.271-1.93v-.703zM184.459 102.903a5.747 5.747 0 01-.564 1.822 5.031 5.031 0 01-1.121 1.471 5.065 5.065 0 01-1.605.971 5.472 5.472 0 01-1.971.352c-.846 0-1.602-.148-2.266-.445a5.622 5.622 0 01-1.701-1.146 5.782 5.782 0 01-1.471-2.416c-.279-.908-.418-1.938-.418-3.088 0-1.152.139-2.184.418-3.092s.77-1.715 1.471-2.416a5.586 5.586 0 011.701-1.146c.664-.295 1.42-.445 2.266-.445a5.72 5.72 0 011.955.324c.605.215 1.131.527 1.58.932s.824.887 1.121 1.443c.295.557.48 1.18.553 1.863h-1.404c-.143-.938-.559-1.711-1.24-2.322-.686-.611-1.539-.918-2.564-.918-.646 0-1.219.105-1.715.311-.494.207-.92.49-1.281.85-.611.631-1.012 1.338-1.199 2.119a10.51 10.51 0 00-.285 2.498c0 .881.094 1.717.285 2.508.188.791.588 1.502 1.199 2.133.721.756 1.719 1.133 2.996 1.133 1.043 0 1.904-.318 2.578-.957s1.092-1.416 1.254-2.336h1.428zM188.213 88.034h1.889v1.891h-1.889v-1.891zm.242 5.64h1.43v13.492h-1.43V93.674zM205.889 100.422c0 1.15-.146 2.176-.432 3.074a5.923 5.923 0 01-3.172 3.562c-.656.307-1.408.459-2.252.459-.848 0-1.598-.152-2.256-.459a5.845 5.845 0 01-1.686-1.16 5.902 5.902 0 01-1.484-2.402c-.289-.898-.432-1.924-.432-3.074 0-1.152.143-2.178.432-3.078.287-.9.783-1.701 1.484-2.402a5.85 5.85 0 011.686-1.16c.658-.305 1.408-.459 2.256-.459.844 0 1.596.154 2.252.459a5.95 5.95 0 011.688 1.16 5.923 5.923 0 011.484 2.402c.285.901.432 1.926.432 3.078m-1.377 0c0-.883-.1-1.711-.297-2.484-.199-.773-.604-1.475-1.215-2.105a4.2 4.2 0 00-1.268-.863c-.486-.215-1.055-.324-1.699-.324-.648 0-1.217.109-1.701.324a4.21 4.21 0 00-1.27.863c-.611.631-1.016 1.332-1.215 2.105a10.036 10.036 0 00-.297 2.484c0 .881.1 1.709.297 2.48.199.773.604 1.477 1.215 2.105.359.361.783.648 1.27.863.484.215 1.053.324 1.701.324.645 0 1.213-.109 1.699-.324a4.153 4.153 0 001.268-.863c.611-.629 1.016-1.332 1.215-2.105a9.998 9.998 0 00.297-2.48m-6.344-8.582l-.457-.729 4.264-3.133.756 1.189-4.563 2.673zM228.852 101.311a6.989 6.989 0 01-.646 2.455 6.426 6.426 0 01-3.522 3.28c-.801.314-1.678.473-2.631.473-.918 0-1.822-.18-2.713-.539a6.963 6.963 0 01-2.336-1.539 6.61 6.61 0 01-1.213-1.727 8.514 8.514 0 01-.676-1.957 14.104 14.104 0 01-.281-2.078 31.64 31.64 0 010-4.168c.043-.703.139-1.395.281-2.08a8.244 8.244 0 01.676-1.955 6.737 6.737 0 011.213-1.715 6.928 6.928 0 012.336-1.537 7.164 7.164 0 012.713-.539c.953 0 1.83.156 2.631.471s1.496.752 2.09 1.309c.594.559 1.072 1.215 1.432 1.971s.574 1.574.646 2.455h-1.455a5.402 5.402 0 00-.514-1.943c-.289-.592-.662-1.105-1.121-1.537s-1.002-.764-1.633-.998a5.916 5.916 0 00-2.076-.352c-.865 0-1.621.145-2.268.432s-1.232.693-1.754 1.215c-.432.451-.77.955-1.012 1.51-.244.561-.424 1.139-.541 1.742s-.188 1.215-.215 1.834a41.446 41.446 0 00-.041 1.795c0 .576.014 1.174.041 1.795s.102 1.238.229 1.85a8.72 8.72 0 00.555 1.754c.242.557.58 1.061 1.01 1.51 1.063 1.1 2.393 1.646 3.996 1.646.754 0 1.447-.115 2.076-.35a4.737 4.737 0 001.633-.998 5.26 5.26 0 001.121-1.539 5.396 5.396 0 00.514-1.943h1.455zM243.855 107.168c-.16.035-.27.057-.322.066-.055.01-.162.014-.324.014-.828 0-1.391-.26-1.688-.783-.295-.521-.443-1.141-.443-1.861a3.824 3.824 0 01-.77 1.268 4.618 4.618 0 01-1.146.904 5.75 5.75 0 01-1.404.555 6.372 6.372 0 01-1.537.188 5.776 5.776 0 01-1.822-.283 4.41 4.41 0 01-1.484-.824 3.654 3.654 0 01-.984-1.309c-.234-.512-.352-1.092-.352-1.738 0-1.205.418-2.156 1.256-2.848.836-.693 1.93-1.084 3.277-1.176l4.967-.35v-1.322c0-1.115-.338-1.906-1.014-2.375-.674-.467-1.525-.701-2.549-.701-1.08 0-1.98.242-2.699.727-.721.486-1.115 1.234-1.188 2.24h-1.35c.055-.682.221-1.285.5-1.807a4.134 4.134 0 011.105-1.322c.459-.359 1-.635 1.619-.824a6.91 6.91 0 012.012-.283c.467 0 .93.041 1.389.123.459.08.896.219 1.309.416.414.199.783.455 1.107.77.324.316.574.707.756 1.174.162.414.26.838.295 1.27.037.432.055.873.055 1.322v6.154c0 .467.059.826.176 1.078s.41.379.877.379a2.1 2.1 0 00.377-.027v1.185zm-2.777-6.937l-4.832.297c-1.008.072-1.807.355-2.402.852-.592.494-.889 1.156-.889 1.984 0 .971.318 1.699.957 2.186s1.443.729 2.414.729c.848 0 1.57-.158 2.174-.473a4.275 4.275 0 001.471-1.229 5.155 5.155 0 00.838-1.713 7.17 7.17 0 00.27-1.93v-.703zM254.086 107.034c-.379.088-.752.164-1.121.229a6.62 6.62 0 01-1.119.094c-1.26 0-2.156-.363-2.686-1.092s-.797-1.678-.797-2.848v-8.502h-2.699v-1.24h2.699V89.95l1.35-.322v4.047h4.184v1.24h-4.184v8.449c0 .395.031.76.096 1.092.063.332.18.621.35.863.172.242.4.432.689.566.287.135.654.201 1.107.201.357 0 .713-.021 1.064-.066.35-.043.705-.104 1.066-.174v1.188zM268.846 107.168a8.07 8.07 0 01-.322.066c-.053.01-.162.014-.324.014-.828 0-1.391-.26-1.688-.783-.295-.521-.443-1.141-.443-1.861a3.824 3.824 0 01-.77 1.268 4.618 4.618 0 01-1.146.904 5.75 5.75 0 01-1.404.555 6.372 6.372 0 01-1.537.188 5.776 5.776 0 01-1.822-.283 4.39 4.39 0 01-1.484-.824 3.682 3.682 0 01-.986-1.309c-.232-.512-.35-1.092-.35-1.738 0-1.205.418-2.156 1.256-2.848.836-.693 1.93-1.084 3.277-1.176l4.967-.35v-1.322c0-1.115-.338-1.906-1.014-2.375-.674-.467-1.523-.701-2.551-.701-1.078 0-1.979.242-2.697.727-.719.486-1.115 1.234-1.188 2.24h-1.35c.055-.682.221-1.285.5-1.807a4.134 4.134 0 011.105-1.322c.459-.359 1-.635 1.619-.824a6.906 6.906 0 012.01-.283c.469 0 .932.041 1.391.123.459.08.896.219 1.309.416.414.199.783.455 1.107.77.324.316.574.707.756 1.174.162.414.26.838.297 1.27.035.432.053.873.053 1.322v6.154c0 .467.059.826.176 1.078s.41.379.879.379c.16 0 .287-.01.375-.027v1.185zm-2.778-6.937l-4.832.297c-1.008.072-1.807.355-2.402.852-.592.494-.889 1.156-.889 1.984 0 .971.318 1.699.959 2.186.637.486 1.441.729 2.414.729.846 0 1.568-.158 2.172-.473a4.275 4.275 0 001.471-1.229 5.155 5.155 0 00.838-1.713 7.17 7.17 0 00.27-1.93v-.703zM276.646 107.167a9.28 9.28 0 01-.5.109 3.986 3.986 0 01-.715.055c-.863 0-1.529-.23-1.996-.689-.469-.459-.703-1.184-.703-2.172V87.684h1.35v16.73c0 .469.09.855.271 1.162.18.305.557.459 1.133.459h.635c.152 0 .326-.02.525-.055v1.187zM291.516 107.168c-.162.035-.27.057-.322.066-.055.01-.164.014-.326.014-.826 0-1.389-.26-1.686-.783-.295-.521-.445-1.141-.445-1.861a3.76 3.76 0 01-.77 1.268c-.332.361-.715.662-1.146.904s-.9.428-1.404.555a6.36 6.36 0 01-1.537.188 5.755 5.755 0 01-1.82-.283 4.4 4.4 0 01-1.486-.824 3.7 3.7 0 01-.984-1.309c-.234-.512-.35-1.092-.35-1.738 0-1.205.416-2.156 1.254-2.848.838-.693 1.93-1.084 3.279-1.176l4.965-.35v-1.322c0-1.115-.336-1.906-1.012-2.375-.676-.467-1.525-.701-2.553-.701-1.076 0-1.977.242-2.697.727-.719.486-1.115 1.234-1.188 2.24h-1.348c.055-.682.219-1.285.498-1.807s.648-.963 1.107-1.322.998-.635 1.619-.824a6.892 6.892 0 012.008-.283c.469 0 .934.041 1.393.123.457.08.895.219 1.309.416.414.199.783.455 1.107.77.322.316.574.707.754 1.174.162.414.262.838.297 1.27s.055.873.055 1.322v6.154c0 .467.059.826.176 1.078.115.252.408.379.877.379.162 0 .287-.01.377-.027v1.185zm-2.78-6.937l-4.832.297c-1.008.072-1.807.355-2.4.852-.594.494-.891 1.156-.891 1.984 0 .971.32 1.699.959 2.186.637.486 1.441.729 2.414.729.846 0 1.57-.158 2.174-.473a4.268 4.268 0 001.469-1.229c.379-.502.658-1.074.838-1.713s.27-1.283.27-1.93v-.703zM304.793 107.167v-8.824c0-1.188-.271-2.1-.809-2.738-.539-.639-1.432-.959-2.672-.959-.828 0-1.529.162-2.105.486s-1.037.756-1.391 1.295a5.56 5.56 0 00-.754 1.85 9.848 9.848 0 00-.229 2.146v6.744h-1.352V93.674h1.188l.164 2.455c.197-.432.453-.818.768-1.16s.674-.635 1.078-.877c.406-.242.842-.432 1.311-.566s.936-.203 1.402-.203c1.564 0 2.748.441 3.549 1.322.801.883 1.201 2.088 1.201 3.615v8.906h-1.349zM322.389 107.168c-.162.035-.271.057-.324.066s-.162.014-.324.014c-.828 0-1.391-.26-1.688-.783-.295-.521-.443-1.141-.443-1.861a3.81 3.81 0 01-.771 1.268c-.33.361-.713.662-1.145.904s-.9.428-1.404.555a6.372 6.372 0 01-1.537.188 5.776 5.776 0 01-1.822-.283 4.39 4.39 0 01-1.484-.824 3.654 3.654 0 01-.984-1.309c-.234-.512-.352-1.092-.352-1.738 0-1.205.418-2.156 1.256-2.848.836-.693 1.93-1.084 3.277-1.176l4.967-.35v-1.322c0-1.115-.336-1.906-1.014-2.375-.674-.467-1.523-.701-2.551-.701-1.078 0-1.979.242-2.697.727-.719.486-1.115 1.234-1.188 2.24h-1.35c.055-.682.221-1.285.5-1.807s.648-.963 1.107-1.322a4.908 4.908 0 011.619-.824 6.882 6.882 0 012.008-.283c.469 0 .932.041 1.391.123.459.08.896.219 1.309.416.414.199.783.455 1.107.77.324.316.576.707.756 1.174.162.414.26.838.297 1.27.035.432.053.873.053 1.322v6.154c0 .467.059.826.176 1.078s.41.379.879.379c.16 0 .287-.01.377-.027v1.185zm-2.78-6.937l-4.832.297c-1.008.072-1.807.355-2.402.852-.592.494-.891 1.156-.891 1.984 0 .971.32 1.699.961 2.186.637.486 1.441.729 2.414.729.846 0 1.568-.158 2.172-.473a4.275 4.275 0 001.471-1.229 5.155 5.155 0 00.838-1.713 7.09 7.09 0 00.27-1.93v-.703zM86.254 134.155l-.162-2.373c-.18.412-.432.791-.756 1.133s-.684.629-1.08.863a5.162 5.162 0 01-1.281.539 5.095 5.095 0 01-1.363.189c-.773 0-1.452-.113-2.037-.338s-1.102-.535-1.551-.93c-.758-.666-1.315-1.508-1.674-2.523a9.76 9.76 0 01-.541-3.281 9.82 9.82 0 01.514-3.182c.341-1.008.871-1.855 1.592-2.539.449-.432.977-.773 1.579-1.025s1.3-.377 2.091-.377c.486 0 .958.064 1.418.189a5.146 5.146 0 012.347 1.375c.314.324.563.674.742 1.053v-8.258h1.348v19.484h-1.186zm-.135-6.746c0-1.008-.127-1.902-.379-2.686s-.693-1.461-1.321-2.037a3.905 3.905 0 00-1.202-.77c-.457-.189-1.002-.283-1.633-.283-.629 0-1.178.107-1.646.324a4.29 4.29 0 00-1.24.863 5.318 5.318 0 00-1.146 2.078 8.652 8.652 0 00-.367 2.51c0 .973.141 1.879.42 2.725s.732 1.549 1.363 2.105c.342.307.729.541 1.16.703.434.16.936.242 1.512.242.594 0 1.115-.1 1.565-.299a4.13 4.13 0 001.188-.781 5.204 5.204 0 001.322-2.092 8.161 8.161 0 00.404-2.602M103.311 126.842c0 .16-.006.311-.014.445-.01.133-.014.283-.014.443h-10.31c.019.793.147 1.535.392 2.229a5.89 5.89 0 001.012 1.822c.379.449.834.799 1.363 1.051s1.164.379 1.902.379c1.205 0 2.186-.396 2.941-1.188.252-.252.463-.531.635-.838.17-.305.301-.664.392-1.078h1.403c-.092.574-.271 1.102-.541 1.578s-.594.895-.971 1.256a5.392 5.392 0 01-1.715 1.146 5.424 5.424 0 01-2.145.418c-.971 0-1.809-.182-2.51-.539a5.935 5.935 0 01-1.781-1.377 6.872 6.872 0 01-1.283-2.281c-.295-.871-.443-1.822-.443-2.848 0-.863.088-1.699.27-2.508a6.118 6.118 0 011.053-2.295c1.15-1.566 2.68-2.348 4.588-2.348.918 0 1.73.18 2.441.539s1.314.842 1.809 1.443a6.443 6.443 0 011.133 2.094 7.81 7.81 0 01.393 2.457m-1.377-.351a6.366 6.366 0 00-.323-1.85 4.903 4.903 0 00-.864-1.564 4.165 4.165 0 00-1.377-1.092c-.539-.271-1.15-.406-1.834-.406-.703 0-1.332.133-1.89.391a4.214 4.214 0 00-1.416 1.066 4.997 4.997 0 00-.905 1.566 5.505 5.505 0 00-.324 1.889h8.933zM128.542 134.155V120.5l-4.966 13.385h-2.562l-4.94-13.547v13.817h-3.373V115.02h4.695l5.02 13.631 5.046-13.631h4.454v19.135zM136.206 114.698h3.616v3.48h-3.616v-3.48zm.108 5.424h3.428v14.033h-3.428v-14.033zM151.912 133.967c-.97.252-1.934.377-2.886.377-1.422 0-2.483-.381-3.186-1.146-.701-.766-1.053-1.822-1.053-3.172v-7.125h-2.563v-2.779h2.563v-3.563l3.373-.836v4.398h3.535v2.779h-3.535v6.828c0 .541.127.932.379 1.174.252.244.646.365 1.188.365.359 0 .697-.01 1.012-.027.316-.018.707-.055 1.173-.109v2.836zM158.523 136.098c0 1.205-.342 2.158-1.025 2.859-.684.703-1.654 1.053-2.914 1.053h-.58c-.189 0-.393-.018-.608-.053a22.593 22.593 0 00-.701-.107 6.355 6.355 0 01-.838-.189V136.8c.252.037.456.064.607.082.155.018.286.031.393.039l.309.029c.1.008.212.014.339.014.52 0 .92-.137 1.2-.406.279-.271.418-.639.418-1.105v-15.33h3.4v15.975zm-3.533-21.455h3.615v3.48h-3.615v-3.48zM174.988 133.993a6.618 6.618 0 01-.742.283c-.207.064-.52.096-.932.096-.738 0-1.305-.199-1.699-.594-.396-.396-.621-.855-.676-1.377-.324.576-.863 1.07-1.619 1.484s-1.637.621-2.645.621c-.828 0-1.561-.121-2.201-.363-.641-.244-1.17-.568-1.594-.973a4.058 4.058 0 01-.957-1.404 4.372 4.372 0 01-.324-1.658c0-.666.123-1.26.363-1.781a4.01 4.01 0 011.014-1.35 4.7 4.7 0 011.51-.879 7.283 7.283 0 011.865-.389l4.129-.299v-.863c0-.666-.158-1.201-.473-1.605s-.947-.607-1.9-.607c-.793 0-1.408.172-1.85.514s-.68.836-.715 1.482h-3.268c.055-.789.238-1.475.555-2.049a4.116 4.116 0 011.252-1.418 5.59 5.59 0 011.824-.822 8.72 8.72 0 012.201-.27c1.203 0 2.279.211 3.223.633.945.424 1.625 1.166 2.039 2.227.18.449.291.918.336 1.402.047.486.068.965.068 1.432v5.209c0 .324.057.553.176.688.117.135.318.203.607.203.143 0 .242-.01.297-.027s.098-.027.135-.027v2.481zm-4.508-6.071l-3.563.268c-.523.037-.99.209-1.402.514-.414.307-.621.746-.621 1.322 0 .541.201.969.607 1.281.404.316.867.475 1.389.475 1.063 0 1.926-.275 2.592-.824s.998-1.344.998-2.389v-.647zM186.512 134.155v-8.609c0-.826-.162-1.475-.486-1.943-.324-.467-.936-.701-1.834-.701-.596 0-1.09.168-1.484.5-.396.332-.711.76-.945 1.281a4.932 4.932 0 00-.418 1.85 47.575 47.575 0 00-.039 1.902v5.721h-3.375v-14.033h2.834l.242 1.809a3.803 3.803 0 011.768-1.633 5.61 5.61 0 012.361-.525c.756 0 1.426.125 2.012.377.584.252 1.078.598 1.482 1.039s.717.967.932 1.58c.217.609.322 1.285.322 2.021v9.365h-3.372zM204.781 129.811c0 .684-.113 1.277-.338 1.779a4.262 4.262 0 01-.877 1.295c-.576.578-1.277.99-2.105 1.242s-1.729.379-2.699.379a7.841 7.841 0 01-2.51-.391 5.286 5.286 0 01-2.023-1.23 5.293 5.293 0 01-1.053-1.428 3.934 3.934 0 01-.432-1.836h3.158c0 .307.072.611.215.918.145.307.324.549.541.729.27.215.57.373.904.471.33.1.74.148 1.227.148.287 0 .598-.021.932-.066.332-.045.643-.131.932-.256.287-.127.525-.307.715-.539.188-.234.283-.541.283-.918 0-.414-.127-.746-.379-.998s-.594-.416-1.025-.486a39.683 39.683 0 00-1.943-.23 14.963 14.963 0 01-1.943-.311 4.287 4.287 0 01-1.307-.512 4.139 4.139 0 01-1.014-.852 3.642 3.642 0 01-.66-1.105 3.577 3.577 0 01-.23-1.281c0-.721.137-1.336.406-1.85s.611-.947 1.025-1.309c.521-.449 1.143-.797 1.861-1.039s1.521-.363 2.402-.363c.846 0 1.66.133 2.443.404.781.27 1.434.684 1.955 1.242.377.414.68.867.904 1.361s.336 1.004.336 1.525h-3.211c0-.271-.055-.514-.162-.729a2.607 2.607 0 00-.404-.594c-.197-.197-.463-.355-.797-.473a3.108 3.108 0 00-1.037-.176c-.252 0-.496.01-.729.027a2.338 2.338 0 00-.729.188 1.938 1.938 0 00-.77.568 1.39 1.39 0 00-.313.916c0 .504.176.852.527 1.041.352.188.715.311 1.094.365.322.035.594.066.809.094.217.027.432.055.648.08.217.027.441.059.674.096.234.035.521.08.863.135 1.117.178 2.035.605 2.754 1.281.721.676 1.082 1.571 1.082 2.688M225.076 134.155l-1.242-3.67h-7.609l-1.242 3.67h-3.51l6.723-19.135H222l6.717 19.135h-3.641zm-5.047-14.869l-2.729 8.068h5.453l-2.724-8.068zM239.459 134.155l-.242-1.834c-.342.684-.875 1.219-1.594 1.604-.719.389-1.527.582-2.428.582-.758 0-1.432-.121-2.023-.363a4.39 4.39 0 01-1.527-1.027 4.502 4.502 0 01-.971-1.578c-.225-.613-.336-1.295-.336-2.051v-9.365h3.371v8.609c0 .828.182 1.48.541 1.957s.99.715 1.891.715c.395 0 .732-.068 1.012-.201.277-.137.516-.303.715-.502.414-.375.688-.854.824-1.43.133-.576.201-1.15.201-1.727v-7.422h3.373v14.033h-2.807zM255.57 134.155l-.217-1.539c-.412.648-.979 1.121-1.699 1.418s-1.467.445-2.24.445c-.701 0-1.34-.107-1.916-.324a5.218 5.218 0 01-1.512-.861 6.154 6.154 0 01-1.875-2.578c-.404-1.035-.607-2.219-.607-3.549 0-1.387.205-2.605.621-3.658a6.21 6.21 0 011.889-2.604c.432-.359.932-.639 1.498-.836s1.209-.297 1.93-.297c.898 0 1.66.129 2.279.391.623.262 1.084.572 1.391.93v-6.42h3.373v19.482h-2.915zm-.297-7.043c0-.504-.041-1.02-.123-1.551a4.43 4.43 0 00-.471-1.457 2.972 2.972 0 00-.971-1.082c-.414-.277-.955-.418-1.621-.418-.521 0-.965.109-1.336.324a3.491 3.491 0 00-.93.783 3.784 3.784 0 00-.715 1.592c-.119.594-.176 1.197-.176 1.809s.057 1.219.176 1.822c.117.602.355 1.139.715 1.605.252.307.563.566.93.783.371.215.814.322 1.336.322.666 0 1.207-.137 1.621-.418.412-.279.736-.639.971-1.08.234-.439.393-.932.471-1.471.082-.538.123-1.059.123-1.563M262.641 114.698h3.615v3.48h-3.615v-3.48zm.107 5.424h3.428v14.033h-3.428v-14.033zM282.559 127.139c0 1.188-.146 2.182-.434 2.98a7.776 7.776 0 01-1.215 2.201c-.486.594-1.156 1.105-2.01 1.537s-1.822.648-2.9.648c-1.08 0-2.047-.217-2.9-.648-.857-.432-1.525-.943-2.012-1.537a7.85 7.85 0 01-1.215-2.201c-.287-.799-.432-1.793-.432-2.98s.145-2.182.432-2.982.693-1.533 1.215-2.199c.486-.596 1.154-1.107 2.012-1.539.854-.432 1.82-.646 2.9-.646 1.078 0 2.047.215 2.9.646s1.523.943 2.01 1.539c.523.666.928 1.398 1.215 2.199s.434 1.795.434 2.982m-3.428 0a9.79 9.79 0 00-.189-1.932 3.284 3.284 0 00-.811-1.605 2.888 2.888 0 00-.891-.633c-.359-.172-.773-.256-1.24-.256-.469 0-.883.084-1.242.256s-.656.383-.891.633a3.29 3.29 0 00-.809 1.605 9.642 9.642 0 00-.191 1.932c0 .664.064 1.309.191 1.93a3.28 3.28 0 00.809 1.605c.234.25.531.463.891.633.359.172.773.258 1.242.258a2.84 2.84 0 001.24-.258 2.88 2.88 0 00.891-.633c.414-.451.686-.984.811-1.605s.189-1.266.189-1.93M292.352 134.155h-3.588l-5.209-14.033h3.562l3.508 9.877 3.318-9.877h3.483zM299.479 114.698h3.617v3.48h-3.617v-3.48zm.107 5.424h3.428v14.033h-3.428v-14.033zM318.152 129.811c0 .684-.111 1.277-.336 1.779a4.231 4.231 0 01-.879 1.295c-.574.578-1.275.99-2.105 1.242a9.214 9.214 0 01-2.697.379c-.9 0-1.736-.131-2.51-.391a5.286 5.286 0 01-2.023-1.23 5.251 5.251 0 01-1.053-1.428 3.934 3.934 0 01-.432-1.836h3.156c0 .307.072.611.215.918.146.307.326.549.541.729.27.215.57.373.906.471.33.1.74.148 1.227.148.287 0 .598-.021.932-.066.332-.045.643-.131.93-.256a1.89 1.89 0 00.715-.539c.189-.234.285-.541.285-.918 0-.414-.127-.746-.379-.998s-.594-.416-1.025-.486a39.683 39.683 0 00-1.943-.23 14.909 14.909 0 01-1.943-.311 4.34 4.34 0 01-1.309-.512 4.129 4.129 0 01-1.012-.852 3.689 3.689 0 01-.662-1.105 3.62 3.62 0 01-.229-1.281c0-.721.135-1.336.406-1.85.27-.514.609-.947 1.025-1.309a5.491 5.491 0 011.861-1.039c.719-.242 1.52-.363 2.4-.363.848 0 1.662.133 2.443.404.781.27 1.434.684 1.957 1.242.377.414.68.867.904 1.361s.336 1.004.336 1.525h-3.211c0-.271-.057-.514-.162-.729a2.607 2.607 0 00-.404-.594c-.199-.197-.463-.355-.797-.473s-.68-.176-1.039-.176c-.252 0-.494.01-.729.027a2.366 2.366 0 00-.729.188 1.931 1.931 0 00-.768.568 1.39 1.39 0 00-.311.916c0 .504.174.852.525 1.041.35.188.715.311 1.094.365.322.035.592.066.809.094s.432.055.648.08c.215.027.439.059.674.096.234.035.521.08.863.135 1.115.178 2.033.605 2.754 1.281.722.676 1.081 1.571 1.081 2.688M330.215 134.155l-.242-1.834c-.342.684-.873 1.219-1.594 1.604-.719.389-1.527.582-2.428.582-.758 0-1.43-.121-2.023-.363-.594-.244-1.104-.586-1.525-1.027s-.746-.967-.971-1.578c-.225-.613-.338-1.295-.338-2.051v-9.365h3.373v8.609c0 .828.182 1.48.539 1.957.361.477.99.715 1.891.715.395 0 .732-.068 1.012-.201.279-.137.518-.303.715-.502.414-.375.688-.854.824-1.43.133-.576.201-1.15.201-1.727v-7.422h3.373v14.033h-2.807zM349.457 133.993a6.474 6.474 0 01-.742.283c-.207.064-.518.096-.932.096-.736 0-1.305-.199-1.699-.594-.396-.396-.621-.855-.674-1.377-.324.576-.865 1.07-1.619 1.484-.756.414-1.639.621-2.646.621-.826 0-1.561-.121-2.199-.363-.639-.244-1.17-.568-1.592-.973a4.03 4.03 0 01-.957-1.404 4.372 4.372 0 01-.324-1.658c0-.666.121-1.26.363-1.781.242-.523.58-.973 1.014-1.35.432-.379.934-.67 1.51-.879a7.232 7.232 0 011.863-.389l4.129-.299v-.863c0-.666-.158-1.201-.473-1.605-.316-.404-.949-.607-1.902-.607-.791 0-1.408.172-1.85.514s-.678.836-.715 1.482h-3.266c.055-.789.238-1.475.555-2.049a4.132 4.132 0 011.254-1.418 5.55 5.55 0 011.82-.822 8.732 8.732 0 012.201-.27c1.205 0 2.281.211 3.225.633.943.424 1.623 1.166 2.037 2.227.18.449.293.918.338 1.402.045.486.066.965.066 1.432v5.209c0 .324.059.553.176.688s.318.203.607.203c.145 0 .242-.01.297-.027s.098-.027.135-.027v2.481zm-4.506-6.071l-3.564.268a2.63 2.63 0 00-1.402.514c-.412.307-.619.746-.619 1.322 0 .541.201.969.607 1.281.402.316.867.475 1.387.475 1.064 0 1.928-.275 2.594-.824.664-.549.998-1.344.998-2.389v-.647zM357.635 134.127c-.342.074-.59.123-.742.148-.152.027-.4.041-.742.041-1.15 0-2.078-.295-2.781-.891-.701-.594-1.051-1.555-1.051-2.887v-15.896h3.4v15.328c0 .416.08.744.242.986.162.244.531.365 1.107.365.145 0 .252-.006.322-.016.072-.008.154-.012.244-.012v2.834zM371.451 129.811c0 .684-.113 1.277-.338 1.779a4.191 4.191 0 01-.877 1.295 4.946 4.946 0 01-2.105 1.242 9.218 9.218 0 01-2.699.379 7.82 7.82 0 01-2.508-.391 5.309 5.309 0 01-2.025-1.23 5.287 5.287 0 01-1.051-1.428 3.935 3.935 0 01-.434-1.836h3.158c0 .307.072.611.215.918.145.307.324.549.541.729.27.215.57.373.904.471.332.1.742.148 1.227.148.289 0 .598-.021.932-.066s.643-.131.932-.256c.287-.127.525-.307.715-.539.189-.234.283-.541.283-.918 0-.414-.125-.746-.377-.998s-.594-.416-1.027-.486a39.598 39.598 0 00-1.941-.23 14.909 14.909 0 01-1.943-.311 4.319 4.319 0 01-1.309-.512 4.129 4.129 0 01-1.012-.852 3.608 3.608 0 01-.892-2.386c0-.721.137-1.336.406-1.85s.611-.947 1.025-1.309a5.52 5.52 0 011.861-1.039c.721-.242 1.521-.363 2.402-.363.846 0 1.66.133 2.443.404.781.27 1.434.684 1.957 1.242.377.414.678.867.902 1.361s.338 1.004.338 1.525h-3.211c0-.271-.057-.514-.162-.729a2.682 2.682 0 00-.406-.594c-.197-.197-.463-.355-.795-.473a3.12 3.12 0 00-1.039-.176c-.252 0-.494.01-.729.027s-.477.082-.729.188c-.307.127-.563.316-.77.568s-.311.559-.311.916c0 .504.176.852.527 1.041.35.188.713.311 1.092.365.324.035.594.066.809.094.217.027.434.055.648.08.217.027.441.059.676.096.234.035.521.08.863.135 1.115.178 2.033.605 2.752 1.281.723.676 1.082 1.571 1.082 2.688M375.77 134.182c0 .773-.162 1.432-.486 1.971s-.846.98-1.566 1.32l-.459-.754c.578-.305.973-.645 1.188-1.012.219-.369.324-.887.324-1.553h-1.484v-2.428h2.484v2.456zM394.713 128.973c0 .848-.139 1.557-.418 2.133s-.645 1.088-1.094 1.537c-.646.631-1.434 1.1-2.359 1.404-.928.305-1.949.459-3.064.459-1.098 0-2.105-.172-3.023-.512a5.964 5.964 0 01-2.32-1.539 6.777 6.777 0 01-1.16-1.729 6.21 6.21 0 01-.566-2.076h1.459c.068.574.232 1.115.482 1.619.252.504.559.943.918 1.32a4.957 4.957 0 001.891 1.174 6.886 6.886 0 002.32.393c.828 0 1.629-.113 2.402-.338s1.422-.588 1.943-1.092c.342-.324.617-.711.824-1.16.203-.451.309-.98.309-1.594 0-.467-.084-.908-.256-1.32-.172-.416-.418-.787-.742-1.121s-.715-.611-1.174-.838a4.88 4.88 0 00-1.553-.445l-3.563-.459a7.659 7.659 0 01-1.861-.484 4.7 4.7 0 01-1.5-.959 4.24 4.24 0 01-.982-1.443c-.234-.557-.352-1.205-.352-1.943 0-.811.158-1.502.473-2.078a6.008 6.008 0 011.201-1.537c.594-.541 1.305-.953 2.133-1.242a7.834 7.834 0 012.59-.432c1.025 0 2.01.193 2.955.58s1.688.896 2.227 1.525c.414.467.746.967.998 1.496.252.531.404 1.139.459 1.824h-1.43a5.331 5.331 0 00-.354-1.311 4.248 4.248 0 00-.699-1.121c-.416-.52-.99-.926-1.729-1.213s-1.547-.432-2.428-.432a7.24 7.24 0 00-1.982.27 4.176 4.176 0 00-1.662.891 4.546 4.546 0 00-.918 1.16c-.252.451-.377.99-.377 1.619 0 .559.096 1.039.285 1.445.188.404.436.736.74.998.307.262.666.463 1.08.607.414.143.836.242 1.268.295l3.617.461a6.13 6.13 0 012.023.594 5.649 5.649 0 011.578 1.146c.441.459.783.98 1.027 1.564.243.586.364 1.221.364 1.904M410.771 134.155l-1.943-5.047h-9.258l-1.889 5.047h-1.457l7.26-19.135h1.377l7.34 19.135h-1.43zm-6.611-17.192l-4.076 10.822h8.23l-4.154-10.822z"/></g></svg>